if (_typeface_js && _typeface_js.loadFace) _typeface_js.loadFace({"glyphs":{"S":{"x_min":44.546875,"x_max":702.875,"ha":746,"o":"m 669 911 b 400 1069 612 1012 516 1069 b 91 798 241 1069 91 968 b 319 533 91 652 200 584 l 391 502 b 572 304 482 465 572 416 b 379 100 572 194 491 100 b 176 298 266 100 175 183 l 44 270 b 368 -22 66 102 198 -22 b 702 304 555 -22 702 113 b 443 619 702 479 591 561 l 368 648 b 222 798 302 673 222 716 b 397 947 222 890 314 947 b 565 848 476 947 526 913 l 669 911 "},"/":{"x_min":44,"x_max":721.78125,"ha":765,"o":"m 621 1206 l 44 -130 l 142 -174 l 721 1161 l 621 1206 "},"y":{"x_min":-17.984375,"x_max":692,"ha":672,"o":"m 279 111 l 23 -372 l 165 -372 l 692 650 l 551 650 l 347 237 l 127 650 l -17 650 l 279 111 "},"≈":{"x_min":65,"x_max":749.71875,"ha":817,"o":"m 702 647 b 565 536 662 577 624 536 b 428 587 513 536 480 560 b 266 648 390 609 337 648 b 65 505 181 648 108 593 l 113 465 b 256 575 149 524 188 575 b 391 525 305 575 346 552 b 560 464 460 486 502 464 b 749 606 649 464 710 526 l 702 647 m 702 394 b 566 285 662 323 624 285 b 428 337 513 285 477 310 b 266 396 388 358 338 396 b 65 254 181 396 108 340 l 113 214 b 256 323 149 271 188 323 b 391 274 305 323 345 300 b 560 213 460 235 502 213 b 749 353 651 213 710 275 l 702 394 "},"g":{"x_min":34.71875,"x_max":694.453125,"ha":771,"o":"m 365 88 b 159 325 233 88 159 202 b 365 558 159 445 236 558 b 576 325 500 558 576 451 b 365 88 576 197 501 88 m 694 650 l 569 650 l 569 538 l 566 538 b 340 669 515 619 437 669 b 34 329 152 669 34 506 b 345 -22 34 143 145 -22 b 566 101 437 -22 516 27 l 569 101 l 569 -22 b 383 -261 569 -155 537 -261 b 188 -77 269 -261 188 -194 l 63 -77 b 377 -372 66 -261 197 -372 b 694 12 630 -372 694 -211 l 694 650 "},"–":{"x_min":0,"x_max":694.453125,"ha":694,"o":"m 0 497 l 0 393 l 694 393 l 694 497 l 0 497 "},"ƒ":{"x_min":19,"x_max":750,"ha":803,"o":"m 492 702 l 523 859 b 670 1045 541 952 558 1045 b 727 1036 690 1045 709 1043 l 750 1152 b 666 1162 723 1159 695 1162 b 392 875 479 1162 420 1038 l 363 702 l 266 702 l 253 608 l 344 608 l 270 180 b 66 -86 246 41 227 -86 l 39 -86 l 19 -205 l 52 -205 b 401 187 320 -205 360 -37 l 477 608 l 659 608 l 672 702 l 492 702 "},"e":{"x_min":36.171875,"x_max":657,"ha":678,"o":"m 657 304 l 657 323 b 352 669 657 516 559 669 b 36 319 143 669 36 519 b 355 -22 36 127 157 -22 b 657 155 482 -22 595 43 l 551 215 b 357 88 504 137 452 88 b 161 304 237 88 162 193 l 657 304 m 168 398 b 352 561 183 491 255 561 b 532 398 452 561 516 495 l 168 398 "},"J":{"x_min":-26.390625,"x_max":420.828125,"ha":503,"o":"m 290 1047 l 290 381 b 143 100 290 275 293 100 b 38 134 105 100 68 112 l -26 23 b 137 -22 25 -6 76 -22 b 420 381 381 -22 420 180 l 420 1047 l 290 1047 "},"∆":{"x_min":46.015625,"x_max":891.859375,"ha":939,"o":"m 46 0 l 891 0 l 891 80 l 539 1079 l 404 1079 l 46 79 l 46 0 m 162 95 l 379 683 b 464 938 404 765 450 881 l 469 938 b 564 661 487 869 539 743 l 768 95 l 162 95 "},"‐":{"x_min":79.171875,"x_max":383.328125,"ha":461,"o":"m 79 497 l 79 393 l 383 393 l 383 497 l 79 497 "},"≥":{"x_min":76.390625,"x_max":741.671875,"ha":817,"o":"m 83 893 l 83 802 l 659 522 l 659 519 l 84 238 l 84 148 l 738 481 l 738 559 l 83 893 m 741 11 l 741 88 l 76 88 l 76 11 l 741 11 "},"^":{"x_min":46,"x_max":757,"ha":803,"o":"m 46 428 l 175 428 l 401 931 l 626 428 l 757 428 l 479 1047 l 323 1047 l 46 428 "},"D":{"x_min":88.890625,"x_max":893.0625,"ha":924,"o":"m 88 0 l 301 0 b 893 529 631 0 893 172 b 305 1047 893 877 626 1047 l 88 1047 l 88 0 m 219 927 l 265 927 b 762 523 531 927 762 829 b 265 119 762 219 531 119 l 219 119 l 219 927 "},"∙":{"x_min":120.828125,"x_max":281.9375,"ha":401,"o":"m 201 436 b 120 355 156 436 120 398 b 201 275 120 311 156 275 b 281 355 245 275 281 311 b 201 436 281 398 245 436 "},"w":{"x_min":-22,"x_max":1021,"ha":997,"o":"m 119 650 l -22 650 l 308 -22 l 500 413 l 690 -22 l 1021 650 l 879 650 l 690 236 l 500 686 l 308 236 l 119 650 "},"$":{"x_min":69.109375,"x_max":733,"ha":803,"o":"m 462 485 b 608 297 538 444 608 391 b 462 108 608 208 546 127 l 462 485 m 392 1069 b 142 796 253 1058 142 933 b 342 542 142 660 233 597 l 392 517 l 392 100 b 194 295 270 115 217 177 l 69 269 b 392 -22 94 109 228 -19 l 392 -154 l 462 -154 l 462 -22 b 733 302 612 -1 733 152 b 462 622 733 473 602 561 l 462 949 b 589 846 521 931 560 901 l 699 908 b 462 1069 649 1001 566 1060 l 462 1194 l 392 1194 l 392 1069 m 392 656 b 263 806 323 683 263 724 b 392 949 263 879 320 937 l 392 656 "},"∫":{"x_min":22.21875,"x_max":502.78125,"ha":529,"o":"m 502 1266 b 422 1286 487 1276 454 1286 b 281 1226 370 1286 319 1268 b 202 906 223 1165 202 1072 b 222 140 202 666 222 390 b 175 -116 222 -11 202 -79 b 106 -151 158 -140 131 -151 b 41 -134 79 -151 54 -140 l 22 -219 b 118 -243 40 -230 79 -243 b 266 -163 176 -243 234 -218 b 329 140 301 -111 329 -20 b 309 895 329 387 309 659 b 358 1163 309 1037 322 1119 b 431 1200 377 1188 406 1200 b 484 1184 451 1200 472 1193 l 502 1266 "},"\\":{"x_min":43,"x_max":721,"ha":765,"o":"m 43 1205 l 604 0 l 721 0 l 159 1205 l 43 1205 "},"’":{"x_min":39,"x_max":301.5,"ha":385,"o":"m 191 1069 l 39 687 l 116 655 l 301 1025 l 191 1069 "},"-":{"x_min":79.171875,"x_max":383.328125,"ha":461,"o":"m 79 497 l 79 393 l 383 393 l 383 497 l 79 497 "},"Q":{"x_min":26.78125,"x_max":1124,"ha":1150,"o":"m 1122 -22 l 960 137 b 1124 523 1062 234 1124 375 b 575 1069 1124 823 875 1069 b 26 523 275 1069 26 823 b 575 -22 26 212 272 -22 b 874 70 675 -22 787 11 l 964 -22 l 1122 -22 m 705 394 l 543 394 l 783 159 b 575 100 719 119 639 100 b 157 523 349 100 157 284 b 575 947 157 754 329 947 b 993 523 821 947 993 754 b 871 230 993 423 951 302 l 705 394 "},"M":{"x_min":18,"x_max":1165,"ha":1182,"o":"m 591 -22 l 905 691 l 908 691 l 1030 0 l 1165 0 l 951 1091 l 591 266 l 231 1091 l 18 0 l 152 0 l 274 691 l 277 691 l 591 -22 "},"C":{"x_min":41.671875,"x_max":862.5,"ha":918,"o":"m 862 998 b 598 1069 783 1047 690 1069 b 41 518 290 1069 41 827 b 587 -22 41 215 288 -22 b 862 51 679 -22 781 4 l 862 205 b 583 97 784 136 686 97 b 172 522 350 97 172 293 b 586 950 172 754 351 950 b 862 847 684 950 787 913 l 862 998 "},"!":{"x_min":143.0625,"x_max":304.171875,"ha":446,"o":"m 223 138 b 143 58 179 138 143 101 b 223 -22 143 13 179 -22 b 304 58 268 -22 304 13 b 223 138 304 101 268 138 m 161 241 l 286 241 l 286 1047 l 161 1047 l 161 241 "},"{":{"x_min":66.875,"x_max":397.4375,"ha":464,"o":"m 66 376 b 171 166 136 345 171 270 l 171 -86 b 289 -269 171 -197 247 -269 l 397 -269 l 397 -152 l 341 -152 b 298 -66 298 -152 298 -112 l 298 188 b 193 426 298 348 211 415 b 298 665 211 438 298 505 l 298 920 b 341 1006 298 966 298 1006 l 397 1006 l 397 1123 l 289 1123 b 171 940 247 1123 171 1051 l 171 687 b 66 477 171 583 136 508 l 66 376 "},"X":{"x_min":0,"x_max":796,"ha":797,"o":"m 329 548 l 0 0 l 145 0 l 402 428 l 650 0 l 796 0 l 477 548 l 779 1046 l 630 1046 l 402 665 l 188 1046 l 40 1046 l 329 548 "},"#":{"x_min":34.953125,"x_max":768.046875,"ha":803,"o":"m 301 997 l 251 727 l 86 727 l 86 616 l 232 616 l 194 402 l 34 402 l 34 291 l 173 291 l 122 0 l 226 0 l 282 291 l 452 291 l 401 0 l 507 0 l 559 291 l 722 291 l 722 402 l 581 402 l 619 616 l 768 616 l 768 727 l 640 727 l 688 997 l 579 997 l 530 727 l 358 727 l 408 997 l 301 997 m 340 616 l 511 616 l 473 402 l 302 402 l 340 616 "},")":{"x_min":79.171875,"x_max":326.390625,"ha":406,"o":"m 79 1047 b 198 427 166 863 198 630 b 79 -191 198 225 166 -8 l 181 -268 b 326 427 284 -66 326 204 b 181 1123 326 652 284 923 l 79 1047 "},"}":{"x_min":66.5625,"x_max":397.125,"ha":464,"o":"m 397 477 b 292 687 327 508 292 583 l 292 940 b 174 1123 292 1051 216 1123 l 66 1123 l 66 1006 l 122 1006 b 165 920 165 1006 165 966 l 165 665 b 270 426 165 505 252 438 b 165 188 252 415 165 348 l 165 -66 b 122 -152 165 -112 165 -152 l 66 -152 l 66 -269 l 174 -269 b 292 -86 216 -269 292 -197 l 292 166 b 397 376 292 270 327 345 l 397 477 "},"‰":{"x_min":30.5625,"x_max":1512.5,"ha":1542,"o":"m 275 985 b 436 830 361 985 436 916 b 275 676 436 745 361 676 b 113 830 188 676 113 745 b 275 985 113 916 188 985 m 773 1069 l 161 12 l 225 -22 l 836 1032 l 773 1069 m 723 370 b 884 215 809 370 884 301 b 723 61 884 130 809 61 b 562 215 637 61 562 130 b 723 370 562 301 637 370 m 275 1069 b 30 830 143 1069 30 963 b 275 592 30 698 144 592 b 519 830 405 592 519 698 b 275 1069 519 963 406 1069 m 723 454 b 479 215 591 454 479 348 b 723 -22 479 83 593 -22 b 968 215 854 -22 968 83 b 723 454 968 348 855 454 m 1268 454 b 1023 215 1136 454 1023 348 b 1268 -22 1023 83 1137 -22 b 1512 215 1398 -22 1512 83 b 1268 454 1512 348 1400 454 m 1268 370 b 1429 215 1354 370 1429 301 b 1268 61 1429 130 1354 61 b 1106 215 1181 61 1106 130 b 1268 370 1106 301 1181 370 "},"a":{"x_min":36.109375,"x_max":695.828125,"ha":772,"o":"m 366 88 b 161 325 234 88 161 202 b 366 558 161 445 237 558 b 577 325 501 558 577 451 b 366 88 577 197 502 88 m 695 650 l 570 650 l 570 541 l 568 541 b 343 669 516 619 438 669 b 36 329 154 669 36 506 b 347 -22 36 143 148 -22 b 568 101 440 -22 518 27 l 570 101 l 570 0 l 695 0 l 695 650 "},"—":{"x_min":180.5625,"x_max":1208.328125,"ha":1389,"o":"m 180 497 l 180 393 l 1208 393 l 1208 497 l 180 497 "},"=":{"x_min":45.828125,"x_max":756.953125,"ha":803,"o":"m 45 534 l 45 415 l 756 415 l 756 534 l 45 534 m 45 295 l 45 176 l 756 176 l 756 295 l 45 295 "},"N":{"x_min":87.5,"x_max":1004.171875,"ha":1090,"o":"m 87 0 l 218 0 l 218 780 l 1004 -43 l 1004 1047 l 873 1047 l 873 273 l 87 1097 l 87 0 "},"⁄":{"x_min":-226,"x_max":455.953125,"ha":229,"o":"m 385 1069 l -226 16 l -155 -22 l 455 1032 l 385 1069 "},"2":{"x_min":62.5,"x_max":738.890625,"ha":803,"o":"m 316 119 l 661 540 b 738 755 709 600 738 677 b 408 1069 738 937 586 1069 b 76 758 218 1069 97 944 l 206 758 b 408 950 213 863 301 950 b 613 750 516 950 613 859 b 520 562 613 680 563 615 l 62 0 l 738 0 l 738 119 l 316 119 "},"Z":{"x_min":13,"x_max":756,"ha":767,"o":"m 225 119 l 756 1047 l 88 1047 l 88 927 l 543 927 l 13 0 l 756 0 l 756 119 l 225 119 "},"u":{"x_min":80.5625,"x_max":630.5625,"ha":711,"o":"m 80 650 l 80 276 b 355 -22 80 98 163 -22 b 630 276 547 -22 630 98 l 630 650 l 505 650 l 505 290 b 355 94 505 186 479 94 b 205 290 231 94 205 186 l 205 650 l 80 650 "},"k":{"x_min":94.4375,"x_max":656.953125,"ha":642,"o":"m 219 1205 l 94 1205 l 94 0 l 219 0 l 219 252 l 262 295 l 494 0 l 656 0 l 351 380 l 629 650 l 463 650 l 219 405 l 219 1205 "},"€":{"x_min":37.171875,"x_max":738.5625,"ha":803,"o":"m 738 1004 b 509 1068 701 1034 619 1068 b 142 676 281 1068 173 906 l 69 676 l 37 580 l 134 580 b 133 526 134 565 133 544 b 135 469 133 506 134 483 l 69 469 l 37 373 l 145 373 b 509 -20 178 101 308 -20 b 738 38 624 -20 703 9 l 738 162 b 526 88 692 120 627 88 b 267 373 377 88 288 187 l 574 373 l 606 469 l 255 469 b 253 526 255 483 253 505 b 255 580 253 543 255 565 l 645 580 l 677 676 l 267 676 b 524 956 284 838 364 956 b 738 883 627 956 696 922 l 738 1004 "},"Ω":{"x_min":69.4375,"x_max":963.890625,"ha":1035,"o":"m 283 97 l 69 97 l 69 0 l 418 0 l 418 70 b 206 548 311 144 206 325 b 520 969 206 784 329 969 b 826 552 723 969 826 748 b 613 70 826 312 722 147 l 613 0 l 963 0 l 963 97 l 748 97 l 748 101 b 944 575 845 188 944 358 b 522 1068 944 833 781 1068 b 88 568 275 1068 88 862 b 283 101 88 359 181 197 l 283 97 "},"s":{"x_min":48.390625,"x_max":497,"ha":533,"o":"m 448 555 b 270 669 413 626 349 669 b 78 480 165 669 78 586 b 203 316 78 391 131 355 l 326 251 b 372 180 355 231 372 215 b 273 88 372 125 326 88 b 155 172 213 88 181 123 l 48 123 b 273 -22 83 31 178 -22 b 497 193 394 -22 497 69 b 347 377 497 295 423 343 b 195 494 270 412 195 437 b 263 558 195 530 228 558 b 347 501 299 558 331 533 l 448 555 "},"B":{"x_min":88.890625,"x_max":697.21875,"ha":743,"o":"m 219 930 l 255 930 b 477 758 377 930 477 905 b 252 583 477 608 376 583 l 219 583 l 219 930 m 219 479 l 300 479 b 566 301 416 479 566 448 b 319 116 566 152 440 116 l 219 116 l 219 479 m 88 0 l 333 0 b 697 293 518 0 697 83 b 487 558 697 415 611 536 l 487 561 b 600 759 558 594 600 683 b 216 1047 600 995 413 1047 l 88 1047 l 88 0 "},"…":{"x_min":150,"x_max":1238.890625,"ha":1389,"o":"m 694 138 b 613 58 650 138 613 101 b 694 -22 613 13 650 -22 b 775 58 738 -22 775 13 b 694 138 775 101 738 138 m 1158 138 b 1077 58 1113 138 1077 101 b 1158 -22 1077 13 1113 -22 b 1238 58 1202 -22 1238 13 b 1158 138 1238 101 1202 138 m 230 138 b 150 58 186 138 150 101 b 230 -22 150 13 186 -22 b 311 58 275 -22 311 13 b 230 138 311 101 275 138 "},"?":{"x_min":70.671875,"x_max":569.671875,"ha":629,"o":"m 416 479 b 318 372 418 420 378 372 b 221 472 262 372 221 416 b 322 573 221 533 272 558 b 494 651 380 591 448 611 b 569 823 543 693 569 759 b 319 1069 569 963 459 1069 b 71 833 189 1069 62 969 l 73 787 l 204 787 b 196 831 200 802 196 816 b 315 951 196 897 250 951 b 443 827 389 951 443 904 b 269 681 443 736 355 713 b 94 477 182 650 94 609 b 318 255 94 352 194 255 b 543 479 436 255 548 358 l 416 479 m 318 138 b 237 58 273 138 237 101 b 318 -22 237 13 273 -22 b 398 58 362 -22 398 13 b 318 138 398 101 362 138 "},"H":{"x_min":88.890625,"x_max":848.609375,"ha":938,"o":"m 219 625 l 219 1047 l 88 1047 l 88 0 l 219 0 l 219 502 l 718 502 l 718 0 l 848 0 l 848 1047 l 718 1047 l 718 625 l 219 625 "},"c":{"x_min":36.109375,"x_max":563.890625,"ha":613,"o":"m 563 626 b 391 669 513 655 450 669 b 36 319 191 669 36 520 b 384 -22 36 125 193 -22 b 563 20 450 -22 506 -9 l 563 180 b 386 94 516 127 458 94 b 161 325 254 94 161 191 b 377 552 161 444 255 552 b 563 465 452 552 513 522 l 563 626 "},"−":{"x_min":45.828125,"x_max":756.953125,"ha":803,"o":"m 45 295 l 756 295 l 756 415 l 45 415 l 45 295 "},"≠":{"x_min":73.984375,"x_max":742.015625,"ha":817,"o":"m 582 751 l 522 777 l 446 608 l 73 608 l 73 533 l 417 533 l 321 320 l 73 320 l 73 245 l 290 245 l 223 101 l 283 75 l 361 245 l 742 245 l 742 320 l 390 320 l 487 533 l 742 533 l 742 608 l 517 608 l 582 751 "},"•":{"x_min":140.265625,"x_max":663.890625,"ha":803,"o":"m 401 262 b 663 523 544 262 663 377 b 401 786 663 669 547 786 b 140 523 255 786 138 669 b 401 262 140 377 258 262 "},"(":{"x_min":79.171875,"x_max":326.390625,"ha":406,"o":"m 223 1123 b 79 427 120 923 79 652 b 223 -268 79 204 120 -66 l 326 -191 b 206 427 238 -8 206 225 b 326 1047 206 630 238 863 l 223 1123 "},"U":{"x_min":81.9375,"x_max":848.609375,"ha":929,"o":"m 81 1047 l 81 384 b 465 -22 81 154 225 -22 b 848 384 705 -22 848 154 l 848 1047 l 718 1047 l 718 429 b 465 100 718 258 666 100 b 212 429 263 100 212 258 l 212 1047 l 81 1047 "},"◊":{"x_min":79,"x_max":755,"ha":836,"o":"m 755 525 l 466 1118 l 371 1118 l 79 525 l 367 -66 l 462 -66 l 755 525 m 649 522 l 445 109 b 420 31 437 90 424 51 l 414 31 b 388 111 410 50 401 80 l 184 527 l 387 936 b 414 1018 399 965 407 993 l 419 1018 b 446 936 424 995 435 962 l 649 522 "},"F":{"x_min":98.609375,"x_max":605.5625,"ha":658,"o":"m 605 927 l 605 1047 l 98 1047 l 98 0 l 229 0 l 229 513 l 593 513 l 593 633 l 229 633 l 229 927 l 605 927 "},":":{"x_min":120.828125,"x_max":281.9375,"ha":401,"o":"m 201 138 b 120 58 156 138 120 101 b 201 -22 120 13 156 -22 b 281 58 245 -22 281 13 b 201 138 281 101 245 138 m 201 669 b 120 588 156 669 120 631 b 201 508 120 544 156 508 b 281 588 245 508 281 544 b 201 669 281 631 245 669 "},"*":{"x_min":87.5,"x_max":512.5,"ha":600,"o":"m 255 1047 l 255 911 l 131 979 l 88 900 l 205 830 l 87 762 l 134 683 l 255 751 l 255 616 l 351 616 l 351 750 l 463 680 l 512 761 l 394 830 l 512 900 l 463 981 l 351 915 l 351 1047 l 255 1047 "},"†":{"x_min":87.5,"x_max":715.28125,"ha":803,"o":"m 338 1205 l 338 823 l 87 823 l 87 704 l 338 704 l 338 -122 l 463 -122 l 463 704 l 715 704 l 715 823 l 463 823 l 463 1205 l 338 1205 "},"∕":{"x_min":-226,"x_max":455.953125,"ha":229,"o":"m 385 1069 l -226 16 l -155 -22 l 455 1032 l 385 1069 "},"V":{"x_min":-10,"x_max":900,"ha":889,"o":"m 133 1047 l -10 1047 l 445 -55 l 900 1047 l 756 1047 l 445 272 l 133 1047 "},"0":{"x_min":36.109375,"x_max":766.671875,"ha":803,"o":"m 401 -22 b 766 523 670 -22 766 309 b 401 1069 766 738 672 1069 b 36 523 130 1069 36 738 b 401 -22 36 309 131 -22 m 401 958 b 641 525 588 958 641 669 b 401 94 641 380 588 94 b 161 525 213 94 161 380 b 401 958 161 669 213 958 "},"”":{"x_min":33,"x_max":526.03125,"ha":610,"o":"m 185 1069 l 33 687 l 110 655 l 295 1025 l 185 1069 m 416 1069 l 263 687 l 341 655 l 526 1025 l 416 1069 "},"@":{"x_min":50.21875,"x_max":1062.09375,"ha":1111,"o":"m 698 516 b 512 322 686 416 636 322 b 373 480 426 322 373 398 b 557 692 373 581 444 692 b 698 516 653 692 712 629 m 733 702 b 548 801 678 774 619 801 b 265 470 376 801 265 638 b 498 213 265 327 376 213 b 687 299 582 213 640 252 b 762 213 696 247 723 215 b 976 334 829 210 909 247 b 1062 629 1031 406 1062 513 b 906 948 1062 758 1001 866 b 580 1069 815 1031 702 1069 b 50 523 284 1069 50 834 b 589 -22 50 208 290 -22 b 962 72 770 -22 863 19 l 858 155 b 600 88 805 110 715 88 b 161 523 362 88 161 269 b 576 958 161 763 343 958 b 951 579 788 958 951 812 b 801 312 951 441 865 312 b 782 431 754 312 772 384 l 851 788 l 753 788 l 733 702 "},"i":{"x_min":90.28125,"x_max":262.5,"ha":353,"o":"m 238 650 l 113 650 l 113 0 l 238 0 l 238 650 m 176 1034 b 90 947 129 1034 90 995 b 176 862 90 900 129 862 b 262 947 223 862 262 900 b 176 1034 262 995 223 1034 "},"≤":{"x_min":75,"x_max":743.0625,"ha":817,"o":"m 737 148 l 737 238 l 161 520 l 161 523 l 737 802 l 737 893 l 81 561 l 81 481 l 737 148 m 743 11 l 743 88 l 75 88 l 75 11 l 743 11 "},"]":{"x_min":83.328125,"x_max":347.21875,"ha":432,"o":"m 219 -151 l 83 -151 l 83 -268 l 347 -268 l 347 1123 l 83 1123 l 83 1006 l 219 1006 l 219 -151 "},"m":{"x_min":81.9375,"x_max":984.71875,"ha":1065,"o":"m 206 650 l 81 650 l 81 0 l 206 0 l 206 319 b 351 558 206 420 218 558 b 470 344 466 558 470 429 l 470 0 l 595 0 l 595 319 b 738 558 595 419 605 558 b 859 368 848 558 859 451 l 859 0 l 984 0 l 984 388 b 769 669 984 536 940 669 b 569 554 687 669 609 623 b 381 669 527 626 466 669 b 209 568 311 669 245 625 l 206 568 l 206 650 "},"8":{"x_min":73.609375,"x_max":729.171875,"ha":803,"o":"m 401 488 b 604 291 506 488 604 402 b 401 94 604 186 504 94 b 198 291 298 94 198 186 b 401 488 198 402 295 488 m 73 291 b 401 -22 73 97 223 -22 b 729 291 579 -22 729 97 b 563 543 729 404 672 505 b 701 777 650 591 701 675 b 401 1069 701 948 568 1069 b 101 777 234 1069 101 948 b 238 543 101 675 152 591 b 73 291 130 505 73 404 m 401 958 b 579 777 495 958 579 877 b 401 600 579 694 488 600 b 223 777 313 600 223 694 b 401 958 223 877 306 958 "},"R":{"x_min":100,"x_max":751.390625,"ha":754,"o":"m 420 455 b 672 748 572 473 672 598 b 534 998 672 848 622 947 b 258 1047 451 1045 351 1047 l 100 1047 l 100 0 l 230 0 l 230 443 l 284 443 l 593 0 l 751 0 l 420 455 m 230 930 l 265 930 b 550 743 394 930 550 906 b 272 551 550 576 405 551 l 230 551 l 230 930 "},"o":{"x_min":27.78125,"x_max":722.21875,"ha":750,"o":"m 375 669 b 27 323 180 669 27 519 b 375 -22 27 127 180 -22 b 722 323 569 -22 722 127 b 375 669 722 519 569 669 m 375 550 b 597 323 498 550 597 447 b 375 97 597 201 498 97 b 152 323 251 97 152 201 b 375 550 152 447 251 550 "},"5":{"x_min":41.671875,"x_max":748.609375,"ha":803,"o":"m 733 927 l 733 1047 l 313 1047 l 152 509 l 177 509 b 373 602 223 568 300 602 b 623 354 508 602 623 488 b 370 97 623 213 512 97 b 138 252 277 97 170 163 l 41 161 b 361 -22 102 45 231 -22 b 748 350 576 -22 748 129 b 412 716 748 543 615 716 l 338 712 l 404 927 l 733 927 "},"7":{"x_min":65,"x_max":819,"ha":803,"o":"m 606 928 l 65 40 l 166 -22 l 819 1047 l 65 1047 l 65 928 l 606 928 "},"K":{"x_min":100,"x_max":854.171875,"ha":833,"o":"m 230 593 l 230 1047 l 100 1047 l 100 0 l 230 0 l 230 437 l 283 487 l 677 0 l 854 0 l 375 576 l 845 1047 l 675 1047 l 230 593 "},",":{"x_min":75,"x_max":336.109375,"ha":401,"o":"m 227 165 l 75 -217 l 151 -249 l 336 121 l 227 165 "},"d":{"x_min":36.109375,"x_max":695.828125,"ha":772,"o":"m 366 88 b 161 325 234 88 161 202 b 366 558 161 445 237 558 b 577 325 501 558 577 451 b 366 88 577 197 502 88 m 570 0 l 695 0 l 695 1205 l 570 1205 l 570 541 l 568 541 b 341 669 516 619 438 669 b 36 329 154 669 36 506 b 347 -22 36 143 147 -22 b 568 101 438 -22 518 27 l 570 101 l 570 0 "},"E":{"x_min":100,"x_max":662.5,"ha":724,"o":"m 100 0 l 662 0 l 662 119 l 230 119 l 230 515 l 650 515 l 650 634 l 230 634 l 230 927 l 662 927 l 662 1047 l 100 1047 l 100 0 "},"Y":{"x_min":-8.328125,"x_max":805.5625,"ha":796,"o":"m 333 455 l 333 0 l 463 0 l 463 455 l 805 1047 l 655 1047 l 398 600 l 141 1047 l -8 1047 l 333 455 "},"\"":{"x_min":125,"x_max":484.71875,"ha":610,"o":"m 125 1047 l 150 591 l 236 591 l 261 1047 l 125 1047 m 348 1047 l 373 591 l 459 591 l 484 1047 l 348 1047 "},"‹":{"x_min":31,"x_max":362,"ha":467,"o":"m 154 444 l 362 721 l 284 778 l 31 444 l 284 122 l 362 178 l 154 444 "},"„":{"x_min":69,"x_max":560.828125,"ha":610,"o":"m 221 165 l 69 -217 l 145 -249 l 330 121 l 221 165 m 452 165 l 299 -217 l 376 -249 l 560 121 l 452 165 "},"|":{"x_min":336.109375,"x_max":455.5625,"ha":792,"o":"m 455 1091 l 336 1091 l 336 -297 l 455 -297 l 455 1091 "},"b":{"x_min":76.390625,"x_max":736.109375,"ha":772,"o":"m 400 88 b 194 325 268 88 194 202 b 400 558 194 445 270 558 b 611 325 534 558 611 451 b 400 88 611 197 536 88 m 76 0 l 201 0 l 201 101 l 204 101 b 425 -22 254 27 333 -22 b 736 329 625 -22 736 143 b 430 669 736 506 618 669 b 204 541 333 669 255 619 l 201 541 l 201 1205 l 76 1205 l 76 0 "},"q":{"x_min":36.109375,"x_max":695.828125,"ha":772,"o":"m 366 88 b 161 325 234 88 161 202 b 366 558 161 445 237 558 b 577 325 501 558 577 451 b 366 88 577 197 502 88 m 695 650 l 570 650 l 570 541 l 568 541 b 341 669 516 619 438 669 b 36 329 154 669 36 506 b 347 -22 36 143 147 -22 b 568 101 438 -22 518 27 l 570 101 l 570 -372 l 695 -372 l 695 650 "},"z":{"x_min":3,"x_max":686,"ha":688,"o":"m 245 116 l 686 650 l 77 650 l 77 533 l 443 533 l 3 0 l 667 0 l 667 116 l 245 116 "},"™":{"x_min":47.21875,"x_max":1258.328125,"ha":1306,"o":"m 1258 1047 l 1113 1047 l 940 634 l 772 1047 l 626 1047 l 626 462 l 715 462 l 715 958 l 718 958 l 912 462 l 966 462 l 1166 958 l 1169 958 l 1169 462 l 1258 462 l 1258 1047 m 519 1047 l 47 1047 l 47 958 l 238 958 l 238 462 l 327 462 l 327 958 l 519 958 l 519 1047 "},"~":{"x_min":46,"x_max":757.109375,"ha":803,"o":"m 664 463 b 544 344 622 394 597 344 b 427 415 511 344 473 380 b 258 486 382 449 326 486 b 46 315 158 486 96 387 l 133 252 b 261 366 177 324 214 366 b 386 295 290 366 334 330 b 546 224 437 261 494 224 b 757 394 646 224 715 317 l 664 463 "},"[":{"x_min":84.71875,"x_max":348.609375,"ha":432,"o":"m 212 1006 l 348 1006 l 348 1123 l 84 1123 l 84 -268 l 348 -268 l 348 -151 l 212 -151 l 212 1006 "},"L":{"x_min":100,"x_max":548.609375,"ha":535,"o":"m 230 1047 l 100 1047 l 100 0 l 548 0 l 548 119 l 230 119 l 230 1047 "}," ":{"x_min":0,"x_max":0,"ha":401},"%":{"x_min":23.609375,"x_max":961.109375,"ha":983,"o":"m 268 985 b 429 830 354 985 429 916 b 268 676 429 745 354 676 b 106 830 181 676 106 745 b 268 985 106 916 181 985 m 766 1069 l 154 12 l 218 -22 l 829 1032 l 766 1069 m 716 370 b 877 215 802 370 877 301 b 716 61 877 130 802 61 b 555 215 630 61 555 130 b 716 370 555 301 630 370 m 268 1069 b 23 830 136 1069 23 963 b 268 592 23 698 137 592 b 512 830 398 592 512 698 b 268 1069 512 963 400 1069 m 716 454 b 472 215 584 454 472 348 b 716 -22 472 83 586 -22 b 961 215 847 -22 961 83 b 716 454 961 348 848 454 "},"P":{"x_min":100,"x_max":672.21875,"ha":688,"o":"m 230 438 l 305 438 b 672 744 504 438 672 523 b 250 1047 672 936 572 1047 l 100 1047 l 100 0 l 230 0 l 230 438 m 230 930 l 265 930 b 550 747 394 930 550 911 b 272 555 550 580 405 555 l 230 555 l 230 930 "},"∑":{"x_min":33.265625,"x_max":770.859375,"ha":803,"o":"m 770 -145 l 770 -34 l 179 -34 l 179 -29 l 552 469 l 209 945 l 209 951 l 747 951 l 747 1051 l 49 1051 l 49 969 l 420 451 l 33 -66 l 33 -145 l 770 -145 "},"∏":{"x_min":38.890625,"x_max":976.390625,"ha":1015,"o":"m 976 944 l 976 1051 l 38 1051 l 38 944 l 194 944 l 194 -145 l 308 -145 l 308 944 l 705 944 l 705 -145 l 819 -145 l 819 944 l 976 944 "},"_":{"x_min":0,"x_max":694.453125,"ha":694,"o":"m 694 -104 l 0 -104 l 0 -173 l 694 -173 l 694 -104 "},"+":{"x_min":45.828125,"x_max":756.953125,"ha":803,"o":"m 341 711 l 341 415 l 45 415 l 45 295 l 341 295 l 341 0 l 461 0 l 461 295 l 756 295 l 756 415 l 461 415 l 461 711 l 341 711 "},"‚":{"x_min":75,"x_max":336.109375,"ha":385,"o":"m 227 165 l 75 -217 l 151 -249 l 336 121 l 227 165 "},"'":{"x_min":125,"x_max":261.109375,"ha":385,"o":"m 125 1047 l 150 591 l 236 591 l 261 1047 l 125 1047 "},"T":{"x_min":2.78125,"x_max":630.5625,"ha":633,"o":"m 381 927 l 630 927 l 630 1047 l 2 1047 l 2 927 l 251 927 l 251 0 l 381 0 l 381 927 "},"℮":{"x_min":51.28125,"x_max":1263.78125,"ha":1317,"o":"m 1263 508 l 1263 523 b 656 1069 1263 825 992 1069 b 51 523 322 1069 51 825 b 656 -20 51 222 322 -20 b 1136 190 851 -20 1027 62 l 1048 190 b 658 9 954 80 815 9 b 286 170 512 9 381 72 b 273 204 279 180 273 191 l 273 501 b 281 508 273 506 276 508 l 1263 508 m 1040 547 b 1034 537 1040 544 1038 537 l 281 537 b 273 547 276 537 273 544 l 273 838 b 288 876 273 854 279 866 b 658 1036 383 973 513 1036 b 1026 881 801 1036 930 975 b 1040 845 1036 872 1040 858 l 1040 547 "},"j":{"x_min":90.28125,"x_max":262.5,"ha":353,"o":"m 238 650 l 113 650 l 113 -372 l 238 -372 l 238 650 m 176 1034 b 90 947 129 1034 90 995 b 176 862 90 900 129 862 b 262 947 223 862 262 900 b 176 1034 262 995 223 1034 "},"1":{"x_min":170.828125,"x_max":477.78125,"ha":803,"o":"m 352 927 l 352 0 l 477 0 l 477 1047 l 243 1047 l 170 927 l 352 927 "},"›":{"x_min":106,"x_max":437,"ha":467,"o":"m 106 178 l 183 122 l 437 444 l 183 778 l 106 721 l 313 444 l 106 178 "},"ℓ":{"x_min":41.671875,"x_max":673.609375,"ha":707,"o":"m 619 220 b 425 77 583 154 515 77 b 269 308 341 77 270 143 l 269 362 b 565 911 447 543 565 723 b 384 1155 565 1048 508 1155 b 158 794 272 1155 158 1066 l 158 384 b 41 280 123 348 83 316 l 76 213 b 159 281 104 236 133 261 l 159 262 b 401 -15 165 113 231 -15 b 673 170 515 -15 609 45 l 619 220 m 269 800 b 386 1066 269 1001 331 1066 b 487 911 459 1066 487 1005 b 269 479 487 765 391 619 l 269 800 "},"<":{"x_min":45.828125,"x_max":756.953125,"ha":803,"o":"m 756 691 l 45 403 l 45 306 l 756 19 l 756 149 l 223 355 l 756 560 l 756 691 "},"t":{"x_min":36.109375,"x_max":351.390625,"ha":333,"o":"m 229 533 l 351 533 l 351 650 l 229 650 l 229 898 l 104 898 l 104 650 l 36 650 l 36 533 l 104 533 l 104 0 l 229 0 l 229 533 "},"W":{"x_min":-17,"x_max":1444,"ha":1426,"o":"m 124 1046 l -17 1046 l 417 -42 l 713 725 l 1009 -42 l 1444 1046 l 1302 1046 l 1009 296 l 713 1069 l 417 296 l 124 1046 "},">":{"x_min":45.921875,"x_max":757.03125,"ha":803,"o":"m 45 560 l 579 355 l 45 149 l 45 19 l 757 306 l 757 403 l 45 691 l 45 560 "},"v":{"x_min":-18,"x_max":636,"ha":618,"o":"m 122 650 l -18 650 l 308 -22 l 636 650 l 495 650 l 308 244 l 122 650 "},"&":{"x_min":73.453125,"x_max":983.171875,"ha":961,"o":"m 398 516 l 630 233 b 390 94 565 168 487 94 b 195 287 290 94 195 187 b 385 508 195 387 313 458 l 398 516 m 426 680 l 391 725 b 329 855 360 763 329 802 b 445 966 329 922 383 966 b 567 852 515 966 567 926 b 442 691 567 776 495 733 l 426 680 m 822 0 l 983 0 l 795 231 l 923 381 l 840 468 l 717 326 l 499 590 b 690 851 587 654 690 733 b 448 1069 690 988 576 1069 b 206 840 310 1069 206 984 b 322 611 206 751 262 673 l 256 563 b 73 286 156 491 73 419 b 394 -22 73 105 219 -22 b 708 141 517 -22 629 48 l 822 0 "},"I":{"x_min":95.828125,"x_max":226.390625,"ha":322,"o":"m 226 1047 l 95 1047 l 95 0 l 226 0 l 226 1047 "},"G":{"x_min":29.15625,"x_max":1054.171875,"ha":1083,"o":"m 638 527 l 638 408 l 909 408 b 566 97 904 237 729 97 b 159 525 340 97 159 305 b 577 950 159 759 343 950 b 906 779 705 950 831 881 l 998 866 b 572 1069 895 995 734 1069 b 29 520 270 1069 29 822 b 558 -22 29 230 265 -22 b 1054 486 851 -22 1054 198 l 1054 527 l 638 527 "},"`":{"x_min":106,"x_max":395,"ha":500,"o":"m 106 957 l 333 751 l 395 788 l 221 1019 l 106 957 "},"r":{"x_min":94.4375,"x_max":504.171875,"ha":488,"o":"m 219 650 l 94 650 l 94 0 l 219 0 l 219 319 b 370 550 219 425 236 550 b 447 523 400 550 425 543 l 504 637 b 401 669 473 656 437 669 b 223 544 318 669 254 620 l 219 544 l 219 650 "},"x":{"x_min":-19,"x_max":699,"ha":679,"o":"m 271 352 l -19 0 l 132 0 l 339 263 l 553 0 l 699 0 l 419 352 l 658 650 l 507 650 l 339 440 l 185 650 l 37 650 l 271 352 "},"∞":{"x_min":73.609375,"x_max":1066.671875,"ha":1140,"o":"m 1066 437 b 851 665 1066 572 979 665 b 576 491 726 665 651 573 b 305 665 498 583 415 665 b 73 430 172 665 73 566 b 294 200 73 300 175 200 b 572 375 413 200 494 284 b 840 200 675 255 748 200 b 1066 436 956 200 1066 291 l 1066 437 m 304 272 b 150 429 212 272 151 343 b 295 595 150 518 202 595 b 531 427 400 595 466 508 b 306 272 470 362 400 272 l 304 272 m 843 595 b 990 430 927 595 990 533 b 845 272 990 355 937 272 b 615 434 766 272 711 326 b 841 595 666 487 743 595 l 843 595 "},"h":{"x_min":86.109375,"x_max":640.28125,"ha":726,"o":"m 86 1205 l 86 0 l 211 0 l 211 298 b 372 558 211 416 211 558 b 515 372 500 558 515 483 l 515 0 l 640 0 l 640 387 b 409 669 640 545 593 669 b 213 562 330 669 252 631 l 211 562 l 211 1205 l 86 1205 "},".":{"x_min":120.828125,"x_max":281.9375,"ha":401,"o":"m 201 138 b 120 58 156 138 120 101 b 201 -22 120 13 156 -22 b 281 58 245 -22 281 13 b 201 138 281 101 245 138 "},";":{"x_min":63.890625,"x_max":347.21875,"ha":401,"o":"m 216 165 l 63 -216 l 140 -248 l 325 122 l 216 165 m 266 669 b 186 588 222 669 186 631 b 266 508 186 544 222 508 b 347 588 311 508 347 544 b 266 669 347 631 311 669 "},"f":{"x_min":54.171875,"x_max":408.328125,"ha":382,"o":"m 408 1205 b 320 1222 380 1216 351 1222 b 111 966 159 1222 111 1108 l 111 650 l 54 650 l 54 533 l 111 533 l 111 0 l 236 0 l 236 533 l 408 533 l 408 650 l 236 650 l 236 929 b 325 1105 236 993 236 1105 b 408 1079 351 1105 383 1090 l 408 1205 "},"“":{"x_min":82.96875,"x_max":576,"ha":610,"o":"m 423 655 l 576 1037 l 498 1069 l 313 698 l 423 655 m 192 655 l 345 1037 l 267 1069 l 82 698 l 192 655 "},"A":{"x_min":-11,"x_max":989,"ha":976,"o":"m 729 262 l 848 0 l 989 0 l 489 1091 l -11 0 l 129 0 l 248 262 l 729 262 m 675 381 l 302 381 l 489 805 l 675 381 "},"6":{"x_min":55.5625,"x_max":750,"ha":803,"o":"m 526 1069 l 169 588 b 55 312 108 506 55 417 b 404 -22 55 127 223 -22 b 750 322 594 -22 750 130 b 447 649 750 490 619 649 b 344 624 409 649 375 640 l 341 627 l 620 1005 l 526 1069 m 402 94 b 180 315 283 94 180 194 b 402 533 180 429 288 533 b 625 308 513 533 625 438 b 402 94 625 191 519 94 "},"O":{"x_min":26.390625,"x_max":1123.609375,"ha":1150,"o":"m 575 1069 b 26 523 275 1069 26 823 b 575 -22 26 212 272 -22 b 1123 523 877 -22 1123 212 b 575 1069 1123 823 875 1069 m 575 100 b 156 523 348 100 156 284 b 575 947 156 754 329 947 b 993 523 820 947 993 754 b 575 100 993 284 801 100 "},"n":{"x_min":86.109375,"x_max":640.28125,"ha":726,"o":"m 211 650 l 86 650 l 86 0 l 211 0 l 211 298 b 372 558 211 416 211 558 b 515 372 500 558 515 483 l 515 0 l 640 0 l 640 387 b 409 669 640 545 593 669 b 213 562 330 669 252 631 l 211 562 l 211 650 "},"‘":{"x_min":83.5,"x_max":346,"ha":385,"o":"m 193 655 l 346 1037 l 268 1069 l 83 698 l 193 655 "},"3":{"x_min":73.609375,"x_max":727.78125,"ha":803,"o":"m 381 500 b 602 297 511 509 602 430 b 402 91 602 183 519 91 b 200 258 302 91 212 155 l 73 258 b 393 -22 81 86 229 -22 b 727 291 580 -22 727 95 b 579 551 727 404 681 502 b 712 787 668 601 712 684 b 409 1069 712 962 576 1069 b 102 805 237 1069 127 977 l 231 805 b 405 955 245 895 311 955 b 587 776 509 955 587 881 b 381 608 587 650 494 608 l 381 500 "},"9":{"x_min":72.21875,"x_max":766.671875,"ha":803,"o":"m 295 -22 l 652 458 b 766 734 713 540 766 630 b 418 1069 766 919 598 1069 b 72 725 227 1069 72 916 b 376 402 72 558 202 402 b 477 422 412 402 447 407 l 480 419 l 201 43 l 295 -22 m 419 514 b 197 733 311 514 197 608 b 427 952 197 852 302 952 b 641 733 541 952 641 844 b 419 514 641 619 552 514 "},"l":{"x_min":91.671875,"x_max":216.671875,"ha":308,"o":"m 216 1205 l 91 1205 l 91 0 l 216 0 l 216 1205 "},"4":{"x_min":9.71875,"x_max":770.828125,"ha":803,"o":"m 651 266 l 651 1091 l 9 152 l 526 152 l 526 0 l 651 0 l 651 152 l 770 152 l 770 266 l 651 266 m 526 266 l 229 266 l 523 698 l 526 698 l 526 266 "},"p":{"x_min":76.390625,"x_max":736.109375,"ha":772,"o":"m 400 88 b 194 325 268 88 194 202 b 400 558 194 445 270 558 b 611 325 534 558 611 451 b 400 88 611 197 536 88 m 201 650 l 76 650 l 76 -372 l 201 -372 l 201 101 l 204 101 b 425 -22 254 27 333 -22 b 736 329 625 -22 736 143 b 430 669 736 506 618 669 b 204 541 333 669 255 619 l 201 541 l 201 650 "},"∂":{"x_min":62.5,"x_max":722.21875,"ha":796,"o":"m 148 1006 b 340 1079 188 1041 251 1079 b 609 644 488 1079 609 901 b 608 580 609 626 609 597 l 605 580 b 372 718 583 625 502 718 b 62 331 208 718 62 569 b 341 -15 62 158 152 -15 b 722 608 590 -15 722 247 b 352 1177 722 998 541 1177 b 109 1094 234 1177 156 1133 l 148 1006 m 351 83 b 177 331 245 83 177 187 b 390 622 177 490 272 622 b 594 465 500 622 573 529 b 354 83 576 266 488 83 l 351 83 "},"‡":{"x_min":87.5,"x_max":715.28125,"ha":803,"o":"m 338 1205 l 338 873 l 87 873 l 87 754 l 338 754 l 338 584 l 87 584 l 87 465 l 338 465 l 338 -120 l 463 -120 l 463 465 l 715 465 l 715 584 l 463 584 l 463 754 l 715 754 l 715 873 l 463 873 l 463 1205 l 338 1205 "},"√":{"x_min":50,"x_max":835,"ha":835,"o":"m 835 1251 l 750 1251 l 482 32 b 462 -81 473 -6 466 -52 l 459 -80 b 434 32 454 -50 443 -6 l 252 581 l 50 502 l 72 431 l 180 471 l 411 -224 l 512 -224 l 835 1251 "}}}
